<mxfile host="app.diagrams.net" agent="Mozilla/5.0 (Windows NT 10.0; Win64; x64; rv:128.0) Gecko/20100101 Firefox/128.0" version="24.7.6">
  <diagram name="Страница — 1" id="7RZ-mZQfw5hi1by2DFD-">
    <mxGraphModel dx="2261" dy="754" grid="1" gridSize="10" guides="1" tooltips="1" connect="1" arrows="1" fold="1" page="1" pageScale="1" pageWidth="827" pageHeight="1169" math="0" shadow="0">
      <root>
        <mxCell id="0" />
        <mxCell id="1" parent="0" />
        <mxCell id="lb2dGUc_wGaU_onJvaw0-10" value="192.168.250.0/24" style="ellipse;shape=cloud;whiteSpace=wrap;html=1;fillColor=none;" parent="1" vertex="1">
          <mxGeometry x="-10" y="160" width="560" height="420" as="geometry" />
        </mxCell>
        <mxCell id="lb2dGUc_wGaU_onJvaw0-5" style="edgeStyle=none;rounded=0;orthogonalLoop=1;jettySize=auto;html=1;exitX=0.5;exitY=0;exitDx=0;exitDy=0;shape=link;" parent="1" source="lb2dGUc_wGaU_onJvaw0-1" target="lb2dGUc_wGaU_onJvaw0-4" edge="1">
          <mxGeometry relative="1" as="geometry" />
        </mxCell>
        <mxCell id="lb2dGUc_wGaU_onJvaw0-18" style="edgeStyle=none;shape=link;rounded=0;orthogonalLoop=1;jettySize=auto;html=1;exitX=1;exitY=0.5;exitDx=0;exitDy=0;" parent="1" source="lb2dGUc_wGaU_onJvaw0-1" target="lb2dGUc_wGaU_onJvaw0-14" edge="1">
          <mxGeometry relative="1" as="geometry" />
        </mxCell>
        <mxCell id="lb2dGUc_wGaU_onJvaw0-1" value="&lt;div&gt;БИ16&lt;/div&gt;&lt;div&gt;192.168.250.1 (сеть БИ16)&lt;br&gt;&lt;/div&gt;&lt;div&gt;192.168.0.1 (сеть БИ общая)&lt;/div&gt;&lt;div&gt;172.Х.Х.Х (сеть ПАК ПИБ УМВ М)&lt;br&gt;&lt;/div&gt;" style="rounded=0;whiteSpace=wrap;html=1;" parent="1" vertex="1">
          <mxGeometry x="80" y="160" width="340" height="110" as="geometry" />
        </mxCell>
        <mxCell id="lb2dGUc_wGaU_onJvaw0-4" value="Программные модули" style="ellipse;shape=cloud;whiteSpace=wrap;html=1;" parent="1" vertex="1">
          <mxGeometry x="190" y="20" width="120" height="80" as="geometry" />
        </mxCell>
        <mxCell id="lb2dGUc_wGaU_onJvaw0-8" value="&lt;div&gt;СКПИ ПВЛ РВ&lt;/div&gt;&lt;div&gt;192.168.250.100&lt;br&gt;&lt;/div&gt;" style="rounded=0;whiteSpace=wrap;html=1;" parent="1" vertex="1">
          <mxGeometry x="294" y="390" width="120" height="60" as="geometry" />
        </mxCell>
        <mxCell id="lb2dGUc_wGaU_onJvaw0-9" value="МАЛС&lt;br&gt;192.168.250.51-70" style="rounded=0;whiteSpace=wrap;html=1;" parent="1" vertex="1">
          <mxGeometry x="120" y="390" width="120" height="60" as="geometry" />
        </mxCell>
        <mxCell id="lb2dGUc_wGaU_onJvaw0-11" value="УМСА&lt;br&gt;192.168.250.11-30" style="rounded=0;whiteSpace=wrap;html=1;" parent="1" vertex="1">
          <mxGeometry x="120" y="290" width="120" height="60" as="geometry" />
        </mxCell>
        <mxCell id="lb2dGUc_wGaU_onJvaw0-12" value="ЦАМР&lt;br&gt;192.168.250.31-50" style="rounded=0;whiteSpace=wrap;html=1;" parent="1" vertex="1">
          <mxGeometry x="300" y="290" width="120" height="60" as="geometry" />
        </mxCell>
        <mxCell id="lb2dGUc_wGaU_onJvaw0-13" value="М13&lt;br&gt;192.168.250.71-90" style="rounded=0;whiteSpace=wrap;html=1;" parent="1" vertex="1">
          <mxGeometry x="220" y="470" width="120" height="60" as="geometry" />
        </mxCell>
        <mxCell id="lb2dGUc_wGaU_onJvaw0-41" style="edgeStyle=elbowEdgeStyle;shape=link;rounded=0;orthogonalLoop=1;jettySize=auto;html=1;entryX=1;entryY=0.5;entryDx=0;entryDy=0;" parent="1" source="lb2dGUc_wGaU_onJvaw0-14" target="lb2dGUc_wGaU_onJvaw0-19" edge="1">
          <mxGeometry relative="1" as="geometry">
            <Array as="points">
              <mxPoint x="1220" y="470" />
            </Array>
          </mxGeometry>
        </mxCell>
        <mxCell id="lb2dGUc_wGaU_onJvaw0-14" value="&lt;div&gt;БИ17&lt;/div&gt;&lt;div&gt;192.168.250.1 (сеть БИ17)&lt;br&gt;&lt;/div&gt;&lt;div&gt;192.168.0.2 (сеть БИ общая)&lt;/div&gt;" style="rounded=0;whiteSpace=wrap;html=1;" parent="1" vertex="1">
          <mxGeometry x="650" y="160" width="340" height="110" as="geometry" />
        </mxCell>
        <mxCell id="lb2dGUc_wGaU_onJvaw0-15" value="192.168.250.0/24" style="ellipse;shape=cloud;whiteSpace=wrap;html=1;fillColor=none;" parent="1" vertex="1">
          <mxGeometry x="550" y="110" width="560" height="420" as="geometry" />
        </mxCell>
        <mxCell id="lb2dGUc_wGaU_onJvaw0-16" value="&lt;div&gt;КСАУ СП чет&lt;br&gt;&lt;/div&gt;&lt;div&gt;192.168.250.11&lt;br&gt;&lt;/div&gt;" style="rounded=0;whiteSpace=wrap;html=1;" parent="1" vertex="1">
          <mxGeometry x="650" y="340" width="160" height="110" as="geometry" />
        </mxCell>
        <mxCell id="lb2dGUc_wGaU_onJvaw0-17" value="&lt;div&gt;КСАУ СП нечет&lt;br&gt;&lt;/div&gt;&lt;div&gt;192.168.250.12&lt;br&gt;&lt;/div&gt;" style="rounded=0;whiteSpace=wrap;html=1;" parent="1" vertex="1">
          <mxGeometry x="860" y="340" width="160" height="110" as="geometry" />
        </mxCell>
        <mxCell id="lb2dGUc_wGaU_onJvaw0-19" value="&lt;div&gt;БИ15&lt;/div&gt;&lt;div&gt;192.168.250.1 (сеть БИ15)&lt;br&gt;&lt;/div&gt;&lt;div&gt;192.168.0.3 (сеть БИ общая)&lt;/div&gt;" style="rounded=0;whiteSpace=wrap;html=1;" parent="1" vertex="1">
          <mxGeometry x="670" y="629" width="340" height="110" as="geometry" />
        </mxCell>
        <mxCell id="lb2dGUc_wGaU_onJvaw0-20" value="192.168.250.0/24" style="ellipse;shape=cloud;whiteSpace=wrap;html=1;fillColor=none;" parent="1" vertex="1">
          <mxGeometry x="570" y="579" width="560" height="420" as="geometry" />
        </mxCell>
        <mxCell id="lb2dGUc_wGaU_onJvaw0-21" value="&lt;div&gt;ПАК КУЗС&lt;br&gt;&lt;/div&gt;&lt;div&gt;192.168.250.11-20&lt;br&gt;&lt;/div&gt;" style="rounded=0;whiteSpace=wrap;html=1;" parent="1" vertex="1">
          <mxGeometry x="670" y="809" width="160" height="110" as="geometry" />
        </mxCell>
        <mxCell id="lb2dGUc_wGaU_onJvaw0-22" value="&lt;div&gt;ПРИЦЕЛ&lt;br&gt;&lt;/div&gt;&lt;div&gt;192.168.250.21-40&lt;br&gt;&lt;/div&gt;" style="rounded=0;whiteSpace=wrap;html=1;" parent="1" vertex="1">
          <mxGeometry x="880" y="809" width="160" height="110" as="geometry" />
        </mxCell>
        <mxCell id="lb2dGUc_wGaU_onJvaw0-39" style="edgeStyle=elbowEdgeStyle;shape=link;rounded=0;orthogonalLoop=1;jettySize=auto;html=1;exitX=0;exitY=0.5;exitDx=0;exitDy=0;entryX=0;entryY=0.5;entryDx=0;entryDy=0;" parent="1" source="lb2dGUc_wGaU_onJvaw0-35" target="lb2dGUc_wGaU_onJvaw0-1" edge="1">
          <mxGeometry relative="1" as="geometry">
            <Array as="points">
              <mxPoint x="-180" y="450" />
            </Array>
          </mxGeometry>
        </mxCell>
        <mxCell id="lb2dGUc_wGaU_onJvaw0-35" value="&lt;div&gt;БИ20&lt;/div&gt;&lt;div&gt;192.168.250.1 (сеть БИ20)&lt;br&gt;&lt;/div&gt;&lt;div&gt;192.168.0.4 (сеть БИ общая)&lt;/div&gt;" style="rounded=0;whiteSpace=wrap;html=1;" parent="1" vertex="1">
          <mxGeometry x="130" y="620" width="340" height="110" as="geometry" />
        </mxCell>
        <mxCell id="lb2dGUc_wGaU_onJvaw0-36" value="192.168.250.0/24" style="ellipse;shape=cloud;whiteSpace=wrap;html=1;fillColor=none;" parent="1" vertex="1">
          <mxGeometry x="30" y="570" width="560" height="420" as="geometry" />
        </mxCell>
        <mxCell id="lb2dGUc_wGaU_onJvaw0-37" value="&lt;div&gt;АКУ БЗУ четная&lt;br&gt;&lt;/div&gt;&lt;div&gt;192.168.250.11&lt;br&gt;&lt;/div&gt;" style="rounded=0;whiteSpace=wrap;html=1;" parent="1" vertex="1">
          <mxGeometry x="130" y="800" width="160" height="110" as="geometry" />
        </mxCell>
        <mxCell id="lb2dGUc_wGaU_onJvaw0-38" value="&lt;div&gt;АКУ БЗУ нечетная&lt;br&gt;&lt;/div&gt;&lt;div&gt;192.168.250.12&lt;br&gt;&lt;/div&gt;" style="rounded=0;whiteSpace=wrap;html=1;" parent="1" vertex="1">
          <mxGeometry x="340" y="800" width="160" height="110" as="geometry" />
        </mxCell>
        <mxCell id="lb2dGUc_wGaU_onJvaw0-40" style="edgeStyle=elbowEdgeStyle;shape=link;rounded=0;orthogonalLoop=1;jettySize=auto;html=1;entryX=-0.001;entryY=0.427;entryDx=0;entryDy=0;entryPerimeter=0;" parent="1" source="lb2dGUc_wGaU_onJvaw0-35" target="lb2dGUc_wGaU_onJvaw0-19" edge="1">
          <mxGeometry relative="1" as="geometry" />
        </mxCell>
      </root>
    </mxGraphModel>
  </diagram>
</mxfile>
